# xmcd
#
# Track frame offsets: 
#        193
#        18832
#        38552
#        68432
#        104515
#        156277
#        205609
#        246701
#        282024
#
# Disc length: 3982 seconds
#
# Revision: 0
# Processed by: cddbd v1.5.2PL0 Copyright (c) Steve Scherf et al.
# Submitted via: ExactAudioCopy v0.95b3
#
DISCID=710f8c09
DTITLE=Hobo Blues Band - Blues Egy Trombitásért
DYEAR=2007
DGENRE=Blues
TTITLE0=Nem szeretem a halálos véletlent (Vlagyimir Viszockij)
TTITLE1=Adjatok a kutyáknak húst (Vlagyimir Viszockij)
TTITLE2=Abandoned Airfields (Hárs Viktor)
TTITLE3=Invitaton To The Blues (Tom Waits/Kathleen Brennan) - Meghívás
TTITLE3=bluesra
TTITLE4=Black Wings (Tom Waits) - Fekete szárnyak
TTITLE5=Footprints (Wayne Shorter)
TTITLE6=Nagy utazás (Dés László)
TTITLE7=A vadászok kivonulása (Póka Egon, Tátrai Tibor, Tóth János, Ho
TTITLE7=bo)
TTITLE8=Blues egy trombitásért (Nagy Szabolcs - Hobo)
EXTD=
EXTT0=
EXTT1=
EXTT2=
EXTT3=
EXTT4=
EXTT5=
EXTT6=
EXTT7=
EXTT8=
PLAYORDER=
